ply
format ascii 1.0
element vertex 196
property float x
property float y
property float z
property uchar diffuse_red
property uchar diffuse_green
property uchar diffuse_blue
end_header
-0.138234315683606 1.9251942767427892 2.292561610049339 155 130 88
0.808916367703721 2.1355065120490058 1.617800827310994 210 190 165
-1.0350745187418176 1.7800607826290527 1.5567145162123417 155 135 124
-1.0639414268893526 1.9788364312993625 2.1857757107639695 141 126 119
0.2514447470602746 2.150772370436973 2.010952521432736 76 66 56
-1.0645731252042785 1.7879974352525507 1.5799406835745757 157 137 126
-0.537678224865976 2.300412710330553 2.75590306589251 212 193 179
0.2440322475700268 2.009783561852383 2.330370929618334 255 255 255
0.28769481938128644 2.155493007969122 1.9792734071402527 195 171 147
-1.114037799621486 2.0899720541694444 2.4735790104812767 192 171 154
0.0076820568697686525 1.978325284336724 2.2171265562309523 255 254 245
1.3280071955386448 2.4287910832434356 2.1311035339867828 223 204 174
-0.6849289089935818 1.9909606989129527 2.2163058241740905 39 34 30
1.0459114153570548 2.335643774099934 2.0082505005770575 214 188 161
-1.0220568887551793 1.9095515504420706 1.977718817935541 178 156 143
0.9381022732841018 2.195572517305274 1.7253001275112856 218 198 173
-0.17677519184685161 2.1155801799646015 1.9710014878715691 197 177 152
-1.3166417084607263 2.1617658954336285 2.766687365298065 173 152 135
-0.28657494681497564 1.9455766483139947 2.384538863649008 121 103 79
0.552225218317025 2.0512667676847314 2.1607216208559454 141 123 96
0.9439009784048091 2.131949256967239 1.5403143821734948 209 189 164
-0.1728753529401795 1.9401091916593247 2.3601933293555692 235 218 173
0.9522287257989344 2.1492694403637937 1.5717210024793218 209 185 157
-0.33233445495681124 1.9225935773928169 2.3447848306956307 60 52 41
-0.7134099785876196 2.2913687072196964 2.8125857046495994 209 190 173
0.30730422083083236 1.9782466728480332 2.1576965234739407 65 56 41
0.4319202173745595 2.044711437161475 2.122627710139887 54 46 35
-0.07923207320239718 2.0967975484180292 1.9630837995818649 209 189 165
0.4044934298876414 2.1651988603005674 1.9575094711840388 225 207 187
-1.0046987847298394 1.930447438921827 1.9908274576787501 176 154 142
-1.276996625639931 2.109555961738038 2.628904752665912 173 152 135
-1.2746380338303496 2.030911853519864 2.4140527851465805 179 158 141
0.9421739539953028 2.1664056427359526 2.1984536961449495 50 40 30
0.12807129814537738 1.9659807202033772 2.281640481291247 95 89 57
0.24915863611441336 2.1338954229646623 1.9475056409525098 225 207 184
0.9083212408223064 2.187879647004824 1.7128969426377931 218 198 174
0.6572061251517612 2.0664664131909944 2.255925861033622 98 80 60
-0.30476646969364324 1.9396510806072178 2.3783714645396365 137 120 84
-0.4896698182480501 1.953528033513382 1.8318457764536502 201 182 165
-0.9926005609165963 1.9624032142403924 2.0559594848326737 59 58 64
0.14381207492904433 1.9705148230807747 2.336523521681947 255 255 255
-1.0117344195636395 1.7992141834238646 1.5847033663769954 160 140 129
0.10032077222618042 2.107925970810262 1.9320091839111915 223 205 185
0.552225218317025 2.0512667676847314 2.1607216208559454 141 123 96
-1.1273168197263153 1.7774764960617513 1.587764652950273 152 132 121
-1.1064977758747545 1.7885692099670405 1.6019922537264066 151 131 120
-0.012615111670596386 2.111248789362663 1.9804859481577641 175 150 128
0.7329261724317376 2.130922813224836 2.091476206197375 151 130 111
-0.33377645387812727 2.3515952178912802 2.7984353142613347 225 209 194
-1.106847631111678 1.9968954981239098 2.2186152029086217 178 157 140
-1.1438865880100102 1.768179233349775 1.595028691853788 151 131 124
-0.10874727619580848 1.9719700654157857 2.4243584075689415 223 207 192
-1.1062073702207833 2.166753870044003 2.714734715578846 190 165 148
-0.07246224306879182 1.9772120115085063 2.1223366878746224 54 46 35
-0.6358731510303249 2.223360677468942 2.584029428595234 210 191 174
0.7634862579467091 2.2705826205711275 2.0124454186596186 107 90 78
-0.31486588935025606 1.9467210921892328 2.4117157798069866 217 201 186
0.922419663585979 2.1802790176845686 2.1987350311617875 52 42 33
0.5859774758090178 2.1864990426171427 1.9009374081184802 215 197 173
-0.4902795444463827 1.9794088490778905 1.8734417230210105 204 185 168
-1.2520171577488282 1.9052073770498503 2.0735182156077423 168 146 133
-0.709645009970222 1.8538614472703419 1.6205342389289616 180 161 147
-0.7881312606462199 1.957167727898401 1.9777861667324883 183 164 150
-0.953890506700554 1.8283244298657089 1.6999949928855225 169 150 136
-0.6206100192402128 1.8160612484974044 1.4682637122282987 172 153 139
-0.6494026555499226 1.9792383463216303 1.9729533827874313 184 165 148
0.41022783343441727 2.0436817982128503 2.1968924466619457 69 54 39
-1.0170892618644254 1.771353260391988 1.547034698920364 142 125 117
-1.1987515933610702 2.0025761140609504 2.302254810230494 176 155 138
0.42745013196197873 2.0254913809378925 2.158080680690848 63 49 36
-0.9193818724792355 1.9387508543077645 1.9827363362274886 182 160 147
1.1054141422877783 2.3585862050146886 2.0507240099925177 224 204 179
0.4581682940036191 2.1126205256151085 1.780427138418813 220 202 182
0.33923795810968366 1.9860269911779083 2.158227916180064 63 53 43
-0.6271613964117813 1.9855461552514078 1.967200722504656 189 170 153
-0.6047121343836466 2.3159618561740016 2.7973967453767794 209 190 173
0.9956618665599277 2.1586647592983046 1.5911604441269687 209 185 159
-0.8384089831597537 1.7760967607253166 2.391800566675164 191 170 151
1.2205632308135315 2.3837968789800295 2.0611853844722163 220 201 171
-0.07507301329283442 1.929144859652217 2.158691498046486 88 77 60
-1.023970903950076 2.163415074059165 2.6175245993832115 190 169 150
-1.0511681461988358 1.8100466493442158 1.6252185328239823 164 145 131
-0.8644638883771645 2.288639571190122 2.8377262208556426 199 178 159
-1.2884722763721153 2.1525094725385 2.7546300089151603 181 155 138
-0.3948027883517669 2.366262449661984 2.864567520354004 216 200 185
0.17963490438658186 2.1271613442370154 1.9540524997449973 223 205 185
-0.5850280400840445 2.3074234469173485 2.7931480602156347 206 187 170
-1.0970375937107861 2.162092736029348 2.6718097541861905 187 166 147
-1.1558584183378997 1.7566443096603241 1.592218188726697 154 134 127
0.4647189001060328 2.009929693996109 2.1656455834835415 156 136 94
-1.3679439037001169 2.033795330551474 2.48341890416606 171 149 136
-1.1401196170324417 1.9943539457898025 2.2667324557902297 182 161 144
-0.6358320602312654 2.2893148750668706 2.770535187118654 215 196 182
-1.1732466024387533 2.230990844566662 2.9096508913387447 187 161 144
0.21577263604611546 2.003485545356944 2.3381050537899988 255 255 255
1.0724471812851843 2.3334768096472476 1.99552457285395 226 206 182
-1.3339607571215246 1.9530925570302426 2.2391709546847807 166 144 131
0.025258448502582145 1.8526938284575847 1.2652513344047878 181 154 133
-0.6358320602312654 2.2893148750668706 2.770535187118654 215 196 182
-0.2504045306109793 1.9147650808520253 2.2635709370386334 240 226 185
-0.9594135465117042 2.244971021093906 2.8317331178441374 198 177 158
-0.537678224865976 2.300412710330553 2.75590306589251 212 193 179
0.18941760266573104 1.9880807070033464 2.2389289430235784 250 251 243
1.2736265318830802 2.4003423305897664 2.078644612571598 220 196 168
1.2494975437198095 2.634615959170048 2.7094304438559984 227 211 196
-0.5850280400840445 2.3074234469173485 2.7931480602156347 206 187 170
0.3518457666235299 2.1621143109268064 1.9647920587845813 216 197 173
0.48724064246685606 2.032736816210056 2.188729329269577 58 48 38
1.5345665590102 2.5622161735350373 2.401994787981804 223 199 175
-0.06893085118033748 2.0102997023812996 2.0933453607708596 50 41 31
0.4647189001060328 2.009929693996109 2.1656455834835415 156 136 94
0.2727748803958715 2.1502528796462084 1.978818970036919 194 170 146
0.719040462112703 2.0149634775990695 1.3519133647585535 203 179 155
0.635305478405086 2.2153857733212345 1.9754607093881578 207 183 159
-0.452567149383381 2.0268451890884456 1.9677226468676017 194 175 158
-0.1422323990773944 1.906759007858959 2.2285934081961964 243 234 201
-0.9339901113101807 1.937295897959485 1.9871453869490987 170 152 134
-0.009869216965342518 1.9396492074138554 2.1405810878216713 53 44 35
0.6935523245322043 2.251542677769372 1.9912959797714267 179 153 129
-0.6108244016564996 1.8280643074005891 1.4688041063535746 169 147 134
-1.0866451926113743 1.9572836363582329 2.066010444380208 160 140 129
1.014995931174462 2.1781754832764815 1.6385278084200343 212 188 164
-1.330973089733709 1.9267115202488676 2.2031148237784 164 142 129
-0.3879346154213368 2.3640934834014327 2.8477543952854885 220 204 189
0.27348258436754513 1.9872032750359356 2.1652131786773725 66 53 37
-1.3670121060980025 2.030952095873775 2.4526927912729533 167 146 129
0.484814996959113 2.191941328379073 1.9726492284187798 208 184 160
-0.45137617712382405 1.977995147824604 1.8354059456414085 203 184 167
0.4788329950016299 2.1923916331440667 1.972570101960857 214 190 166
0.9449950620019675 2.1617613040015025 1.596785275984568 212 192 168
-1.3386105287709162 1.9610918998452793 2.262075398743478 162 140 127
-1.046662477164491 2.1274688558110513 2.5719242201930848 192 171 152
1.3091602748507076 2.3930046427192035 2.0497876200053637 221 197 169
-0.11570718031475499 2.0985280640914064 1.979586920978474 178 154 130
-0.5234169948403424 2.0043577815185567 1.9568944753297395 202 183 166
-0.9527604682749626 1.9298106219503224 1.9694773440298636 182 160 147
-0.4428759833212431 0.18348470601349492 1.849831840036585 255 0 0
-0.22207286132864806 0.16419717932013927 1.8338103331861362 255 0 0
-0.0012697393360530107 0.14490965262678362 1.8177888263356876 255 0 0
0.2195333826565421 0.12562212593342797 1.8017673194852388 255 0 0
0.4403365046491371 0.10633459924007232 1.78574581263479 255 0 0
0.6611396266417323 0.08704707254671668 1.7697243057843413 255 0 0
0.8819427486343273 0.06775954585336103 1.7537027989338927 255 0 0
1.1027458706269222 0.0484720191600054 1.737681292083444 255 0 0
1.3235489926195174 0.029184492466649725 1.7216597852329951 255 0 0
1.5443521146121126 0.009896965773294075 1.7056382783825463 255 0 0
-0.4428759833212431 0.18348470601349492 1.849831840036585 0 255 0
-0.456947323007548 0.2056925794899768 1.6291702806193002 0 255 0
-0.47101866269385284 0.22790045296645867 1.4085087212020153 0 255 0
-0.4850900023801577 0.25010832644294057 1.1878471617847306 0 255 0
-0.49916134206646257 0.27231619991942246 0.9671856023674459 0 255 0
-0.5132326817527675 0.29452407339590436 0.746524042950161 0 255 0
-0.5273040214390723 0.3167319468723862 0.5258624835328762 0 255 0
-0.5413753611253771 0.33893982034886805 0.30520092411559174 0 255 0
-0.555446700811682 0.36114769382534995 0.08453936469830681 0 255 0
-0.5695180404979869 0.38335556730183185 -0.13612219471897813 0 255 0
-0.4428759833212431 0.18348470601349492 1.849831840036585 0 0 255
-0.4221227964060124 0.40375162981071044 1.8706765890913428 0 0 255
-0.40136960949078165 0.624018553607926 1.8915213381461007 0 0 255
-0.38061642257555095 0.8442854774051416 1.9123660872008585 0 0 255
-0.3598632356603202 1.064552401202357 1.9332108362556166 0 0 255
-0.3391100487450895 1.2848193249995727 1.9540555853103745 0 0 255
-0.3183568618298588 1.5050862487967882 1.9749003343651323 0 0 255
-0.297603674914628 1.7253531725940037 1.9957450834198902 0 0 255
-0.27685048799939727 1.9456200963912194 2.016589832474648 0 0 255
-0.25609730108416656 2.165887020188435 2.037434581529406 0 0 255
0.4412852907178246 -0.17761138362900467 2.0940901340409903 255 0 0
0.6603371637504961 -0.1402082691899913 2.0940908573313513 255 0 0
0.8793890367831677 -0.10280515475097794 2.0940915806217117 255 0 0
1.0984409098158392 -0.06540204031196457 2.0940923039120727 255 0 0
1.3174927828485108 -0.02799892587295122 2.094093027202433 255 0 0
1.5365446558811826 0.009404188566062177 2.094093750492794 255 0 0
1.755596528913854 0.04680730300507552 2.0940944737831546 255 0 0
1.9746484019465254 0.08421041744408889 2.0940951970735155 255 0 0
2.193700274979197 0.12161353188310223 2.0940959203638765 255 0 0
2.4127521480118688 0.15901664632211562 2.094096643654237 255 0 0
0.4412852907178246 -0.17761138362900467 2.0940901340409903 0 255 0
0.44128629522911006 -0.1776129692960858 1.8718679118266957 0 255 0
0.44128729974039554 -0.17761455496316692 1.649645689612401 0 255 0
0.4412883042516811 -0.17761614063024805 1.4274234673981065 0 255 0
0.44128930876296657 -0.1776177262973292 1.2052012451838117 0 255 0
0.44129031327425206 -0.1776193119644103 0.982979022969517 0 255 0
0.44129131778553754 -0.17762089763149144 0.7607568007552226 0 255 0
0.441292322296823 -0.17762248329857258 0.5385345785409281 0 255 0
0.4412933268081085 -0.1776240689656537 0.31631235632663324 0 255 0
0.441294331319394 -0.17762565463273483 0.09409013411233857 0 255 0
0.4412852907178246 -0.17761138362900467 2.0940901340409903 0 0 255
0.4038821762853066 0.041440489399121844 2.094088401922614 0 0 255
0.3664790618527886 0.2604923624272484 2.094086669804238 0 0 255
0.3290759474202706 0.47954423545537483 2.094084937685862 0 0 255
0.2916728329877526 0.6985961084835014 2.0940832055674856 0 0 255
0.2542697185552346 0.917647981511628 2.0940814734491098 0 0 255
0.21686660412271663 1.1366998545397542 2.0940797413307335 0 0 255
0.17946348969019865 1.3557517275678808 2.0940780092123576 0 0 255
0.14206037525768067 1.5748036005960073 2.0940762770939814 0 0 255
0.10465726082516263 1.793855473624134 2.094074544975605 0 0 255
